<svg width="18" height="17" viewBox="0 0 18 17" fill="none" xmlns="http://www.w3.org/2000/svg">
<path d="M17.4459 4.73034C17.4365 4.05742 17.3042 3.39118 17.055 2.76144C16.8389 2.23026 16.5088 1.74784 16.0859 1.34503C15.6629 0.942215 15.1564 0.627855 14.5986 0.422035C13.9459 0.188678 13.2563 0.0624978 12.5593 0.0488672C11.6618 0.010662 11.3773 0 9.09908 0C6.82089 0 6.52889 5.95782e-08 5.63795 0.0488672C4.94121 0.062598 4.25196 0.188777 3.59952 0.422035C3.04169 0.627712 2.53508 0.942021 2.11211 1.34485C1.68913 1.74769 1.35911 2.23017 1.14315 2.76144C0.897633 3.38261 0.765431 4.03919 0.752256 4.7028C0.71214 5.55842 0.700012 5.82941 0.700012 7.99911C0.700012 10.1688 0.700012 10.446 0.752256 11.2954C0.766249 11.96 0.897791 12.6157 1.14315 13.2386C1.35947 13.7697 1.68974 14.252 2.11286 14.6546C2.53597 15.0573 3.04263 15.3715 3.60046 15.5771C4.25111 15.8198 4.94047 15.955 5.63888 15.9769C6.53728 16.0151 6.82183 16.0267 9.10001 16.0267C11.3782 16.0267 11.6702 16.0267 12.5611 15.9769C13.2582 15.9638 13.9478 15.8379 14.6005 15.6046C15.1581 15.3986 15.6645 15.0841 16.0874 14.6813C16.5103 14.2786 16.8405 13.7963 17.0569 13.2652C17.3022 12.6433 17.4338 11.9876 17.4478 11.3221C17.4879 10.4673 17.5 10.1964 17.5 8.02577C17.4981 5.85606 17.4981 5.58063 17.4459 4.73034ZM9.09348 12.1022C6.71081 12.1022 4.7806 10.2639 4.7806 7.99467C4.7806 5.72546 6.71081 3.88716 9.09348 3.88716C10.2373 3.88716 11.3343 4.31992 12.1432 5.09022C12.952 5.86053 13.4064 6.90529 13.4064 7.99467C13.4064 9.08405 12.952 10.1288 12.1432 10.8991C11.3343 11.6694 10.2373 12.1022 9.09348 12.1022ZM13.578 4.69303C13.4459 4.69314 13.3151 4.66845 13.193 4.62036C13.0709 4.57226 12.96 4.50172 12.8666 4.41275C12.7732 4.32379 12.6991 4.21816 12.6486 4.1019C12.5981 3.98564 12.5722 3.86104 12.5723 3.73523C12.5723 3.60951 12.5983 3.48502 12.6489 3.36887C12.6994 3.25271 12.7734 3.14718 12.8668 3.05828C12.9601 2.96938 13.0709 2.89886 13.1929 2.85075C13.3148 2.80264 13.4455 2.77788 13.5776 2.77788C13.7096 2.77788 13.8403 2.80264 13.9622 2.85075C14.0842 2.89886 14.195 2.96938 14.2884 3.05828C14.3817 3.14718 14.4557 3.25271 14.5063 3.36887C14.5568 3.48502 14.5828 3.60951 14.5828 3.73523C14.5828 4.26477 14.1331 4.69303 13.578 4.69303Z" fill="white"/>
<path d="M9.093 10.663C10.6403 10.663 11.8946 9.46839 11.8946 7.99481C11.8946 6.52123 10.6403 5.32666 9.093 5.32666C7.54574 5.32666 6.29144 6.52123 6.29144 7.99481C6.29144 9.46839 7.54574 10.663 9.093 10.663Z" fill="white"/>
</svg>
