<svg width="17" height="14" viewBox="0 0 17 14" fill="none" xmlns="http://www.w3.org/2000/svg">
<path d="M5.38406 13.0013C6.67395 13.0091 7.95262 12.7728 9.14589 12.3062C10.3392 11.8397 11.4233 11.1521 12.3354 10.2835C13.2475 9.41479 13.9694 8.38229 14.4593 7.24584C14.9492 6.10939 15.1973 4.89162 15.1892 3.66315V3.23406C15.8578 2.76751 16.4365 2.19419 16.8997 1.53952C16.2701 1.80177 15.6039 1.9757 14.9219 2.05588C15.645 1.64554 16.1875 0.999637 16.4492 0.237697C15.7753 0.622745 15.0363 0.893432 14.2652 1.0377C13.7458 0.510691 13.0586 0.161374 12.3098 0.0437959C11.5611 -0.0737821 10.7925 0.0469331 10.123 0.387264C9.45351 0.727594 8.92046 1.26857 8.60631 1.92648C8.29216 2.58439 8.21444 3.32257 8.38516 4.02679C7.01521 3.96275 5.67479 3.62462 4.45117 3.03443C3.22756 2.44424 2.14818 1.61521 1.28334 0.601333C0.847242 1.32219 0.71506 2.17393 0.913554 2.98411C1.11205 3.79429 1.62639 4.50237 2.35243 4.96497C1.81682 4.9453 1.29361 4.80577 0.825155 4.5577V4.59406C0.820396 5.34739 1.08687 6.07953 1.58017 6.66844C2.07346 7.25735 2.76378 7.66746 3.53606 7.83042C3.0379 7.95803 2.51607 7.97791 2.00879 7.88861C2.23237 8.53107 2.65917 9.09193 3.23065 9.49427C3.80212 9.89661 4.4903 10.1207 5.20079 10.1359C3.98601 11.0672 2.47621 11.5798 0.916792 11.5904C0.643374 11.5829 0.370599 11.561 0.0997009 11.525C1.6781 12.4827 3.51255 12.9877 5.38406 12.9795" fill="white"/>
</svg>
