<svg width="64" height="64" viewBox="0 0 64 64" fill="none" xmlns="http://www.w3.org/2000/svg">
<g id="typcn:arrow-up-outline">
<path id="Vector" d="M8 32C8 27.5893 11.5893 24 16 24L28.704 24C25.9733 20.952 26.0933 15.9333 29.0107 13.0107C30.5116 11.5122 32.5458 10.6706 34.6667 10.6706C36.7875 10.6706 38.8218 11.5122 40.3227 13.0107L59.312 32L40.3227 50.9893C38.8217 52.4878 36.7875 53.3294 34.6667 53.3294C32.5458 53.3294 30.5116 52.4878 29.0107 50.9893C26.0907 48.072 25.9707 43.0453 28.704 40L16 40C11.5893 40 8 36.4107 8 32ZM41.5627 29.3333L16 29.3333C15.3134 29.3641 14.6651 29.6584 14.1901 30.1552C13.7151 30.6519 13.4499 31.3127 13.4499 32C13.4499 32.6873 13.7151 33.3481 14.1901 33.8449C14.6651 34.3416 15.3134 34.636 16 34.6667L41.5627 34.6667L32.7813 43.448C32.2959 43.9557 32.025 44.631 32.025 45.3333C32.025 46.0357 32.2959 46.711 32.7813 47.2187C33.0288 47.4665 33.3226 47.6632 33.6461 47.7973C33.9697 47.9315 34.3164 48.0005 34.6667 48.0005C35.0169 48.0005 35.3637 47.9315 35.6872 47.7973C36.0107 47.6632 36.3046 47.4665 36.552 47.2187L51.7707 32L36.552 16.7813C36.3046 16.5335 36.0107 16.3369 35.6872 16.2027C35.3637 16.0685 35.0169 15.9995 34.6667 15.9995C34.3164 15.9995 33.9697 16.0685 33.6462 16.2027C33.3226 16.3369 33.0288 16.5335 32.7813 16.7813C32.2959 17.289 32.025 17.9643 32.025 18.6667C32.025 19.3691 32.2959 20.0444 32.7813 20.552L41.5627 29.3333Z" fill="#1D4573"/>
</g>
</svg>
