<svg width="598" height="598" viewBox="0 0 598 598" fill="none" xmlns="http://www.w3.org/2000/svg">
<path d="M-3.48957e-05 299C-2.04594e-05 133.867 133.867 2.04593e-05 299 3.48957e-05C464.133 4.93321e-05 598 133.867 598 299C598 464.133 464.133 598 299 598C133.867 598 -4.93321e-05 464.133 -3.48957e-05 299ZM491.991 299C491.991 192.414 405.586 106.009 299 106.009C192.414 106.009 106.009 192.414 106.009 299C106.009 405.586 192.414 491.991 299 491.991C405.586 491.991 491.991 405.586 491.991 299Z" fill="#A5CCFF"/>
</svg>
